<?xml version="1.0" standalone="no"?>
<svg xmlns:xlink="http://www.w3.org/1999/xlink" id="wave" style="transform:rotate(0deg); transition: 0.3s" viewBox="0 0 1440 490" version="1.1" xmlns="http://www.w3.org/2000/svg"><defs><linearGradient id="sw-gradient-0" x1="0" x2="0" y1="1" y2="0"><stop stop-color="rgba(86, 53, 174, 1)" offset="0%"/><stop stop-color="rgba(174, 163, 237, 1)" offset="100%"/></linearGradient></defs><path style="transform:translate(0, 0px); opacity:1" fill="url(#sw-gradient-0)" d="M0,392L48,343C96,294,192,196,288,147C384,98,480,98,576,106.2C672,114,768,131,864,147C960,163,1056,180,1152,228.7C1248,278,1344,359,1440,392C1536,425,1632,408,1728,367.5C1824,327,1920,261,2016,212.3C2112,163,2208,131,2304,114.3C2400,98,2496,98,2592,114.3C2688,131,2784,163,2880,196C2976,229,3072,261,3168,277.7C3264,294,3360,294,3456,253.2C3552,212,3648,131,3744,114.3C3840,98,3936,147,4032,212.3C4128,278,4224,359,4320,392C4416,425,4512,408,4608,400.2C4704,392,4800,392,4896,326.7C4992,261,5088,131,5184,114.3C5280,98,5376,196,5472,253.2C5568,310,5664,327,5760,326.7C5856,327,5952,310,6048,269.5C6144,229,6240,163,6336,171.5C6432,180,6528,261,6624,294C6720,327,6816,310,6864,302.2L6912,294L6912,490L6864,490C6816,490,6720,490,6624,490C6528,490,6432,490,6336,490C6240,490,6144,490,6048,490C5952,490,5856,490,5760,490C5664,490,5568,490,5472,490C5376,490,5280,490,5184,490C5088,490,4992,490,4896,490C4800,490,4704,490,4608,490C4512,490,4416,490,4320,490C4224,490,4128,490,4032,490C3936,490,3840,490,3744,490C3648,490,3552,490,3456,490C3360,490,3264,490,3168,490C3072,490,2976,490,2880,490C2784,490,2688,490,2592,490C2496,490,2400,490,2304,490C2208,490,2112,490,2016,490C1920,490,1824,490,1728,490C1632,490,1536,490,1440,490C1344,490,1248,490,1152,490C1056,490,960,490,864,490C768,490,672,490,576,490C480,490,384,490,288,490C192,490,96,490,48,490L0,490Z"/></svg>